<svg xmlns="http://www.w3.org/2000/svg" viewBox="0 0 1200 900" width="1200" height="900" role="img" aria-labelledby="t d">
<title id="t">VVAH phase 2: hunt and double-check</title>
<desc id="d">1 Hunt, S4: an AI reviewer goes through each chunk, guided by a language lens (42 languages) and, for specialist chunks, one of 11 specialist lenses. Optional voting runs each chunk 3 times and keeps what 2 runs agree on; only the full profile turns it on. 2 Filter, S5, with rules and no AI: drop findings in test or mock paths, in files that do not exist, with low confidence, or with no source or sink; one optional AI call merges look-alikes. 3 Prove it wrong, S6: a fresh verifier per finding re-reads the code and hunts for defences. A true positive gets a CVSS score and moves on; a false positive is kept in the audit trail. 4 Live check, beta and opt-in: exploit verification tests web-API findings against a running copy of the app. It only adds evidence and never drops a finding.</desc>
<defs>
<marker id="arr" viewBox="0 0 10 10" refX="9" refY="5" markerWidth="7" markerHeight="7" orient="auto"><path d="M0 0L10 5L0 10z" fill="#5b6675"/></marker>
<marker id="ca" viewBox="0 0 10 10" refX="5" refY="5" markerWidth="6" markerHeight="6" orient="auto"><path d="M0 0L10 5L0 10z" fill="#5b6675"/></marker>
</defs>
<style>
text{font-family:-apple-system,"Helvetica Neue",Arial,"PingFang SC",sans-serif;fill:#1f2a37}
.gt{font-size:26px;font-weight:700}
.st{font-size:20px;font-weight:700}
.ag{font-size:20px}
.q{font-size:18px;fill:#3d4a5c}
.lb{font-size:17px;fill:#4a5565}
.al{font-size:16px;font-weight:600;fill:#3d4a5c;paint-order:stroke;stroke:#ffffff;stroke-width:6px;stroke-linejoin:round}
.grp{fill:#f2f5f9;stroke:#9aa4b2;stroke-width:1.6}
.sub{fill:#e8edf3;stroke:#b8c1cc;stroke-width:1.2}
.agent{fill:#ffffff;stroke:#b8c1cc;stroke-width:1.2}
.human{fill:#d6e6fb;stroke:#9cbbe6;stroke-width:1.2}
.front{fill:#dcf0e0;stroke:#9ccfa8;stroke-width:1.2}
.flow{stroke:#5b6675;stroke-width:2;fill:none;marker-end:url(#arr)}
.back{stroke-dasharray:7 5}
.cyc{stroke:#5b6675;stroke-width:2;fill:none;marker-end:url(#ca)}
.num{fill:#1f2a37}
.numt{font-size:16px;font-weight:700;fill:#ffffff}
</style>
<rect width="1200" height="900" rx="18" fill="#ffffff"/>
<rect x="24" y="16" width="552" height="412" rx="12" class="grp"/>
<circle cx="236.0" cy="43" r="14" class="num"/>
<text x="236.0" y="49" class="numt" text-anchor="middle" >1</text>
<text x="256.0" y="52" class="gt" text-anchor="start" >Hunt: S4</text>
<rect x="54" y="80" width="492" height="72" rx="8" class="agent"/>
<rect x="54" y="90" width="5" height="52" rx="2" fill="#2f6fd6"/>
<text x="303.0" y="111.0" class="ag" text-anchor="middle" >AI reviewer per chunk</text>
<text x="303.0" y="135.0" class="ag" text-anchor="middle" >looks for weaknesses</text>
<rect x="54" y="192" width="238" height="72" rx="8" class="agent"/>
<rect x="54" y="202" width="5" height="52" rx="2" fill="#5b6675"/>
<text x="176.0" y="223.0" class="ag" text-anchor="middle" >Language lens</text>
<text x="176.0" y="247.0" class="ag" text-anchor="middle" >42 languages</text>
<rect x="308" y="192" width="238" height="72" rx="8" class="agent"/>
<rect x="308" y="202" width="5" height="52" rx="2" fill="#5b6675"/>
<text x="430.0" y="223.0" class="ag" text-anchor="middle" >Specialist lens</text>
<text x="430.0" y="247.0" class="ag" text-anchor="middle" >11 kinds</text>
<path d="M173 192V154" class="flow"/>
<path d="M427 192V154" class="flow"/>
<text x="300.0" y="326" class="lb" text-anchor="middle" >optional vote: 3 runs, 2 must agree</text>
<text x="300.0" y="354" class="lb" text-anchor="middle" >on in the full profile only</text>
<rect x="624" y="16" width="552" height="412" rx="12" class="grp"/>
<circle cx="775.25" cy="43" r="14" class="num"/>
<text x="775.25" y="49" class="numt" text-anchor="middle" >2</text>
<text x="795.25" y="52" class="gt" text-anchor="start" >Filter: S5, no AI</text>
<rect x="654" y="80" width="238" height="80" rx="8" class="agent"/>
<rect x="654" y="90" width="5" height="60" rx="2" fill="#d64545"/>
<text x="776.0" y="115.0" class="ag" text-anchor="middle" >Test or mock</text>
<text x="776.0" y="139.0" class="ag" text-anchor="middle" >path</text>
<rect x="908" y="80" width="238" height="80" rx="8" class="agent"/>
<rect x="908" y="90" width="5" height="60" rx="2" fill="#d64545"/>
<text x="1030.0" y="115.0" class="ag" text-anchor="middle" >File not there</text>
<text x="1030.0" y="139.0" class="ag" text-anchor="middle" >made-up path</text>
<rect x="654" y="176" width="238" height="80" rx="8" class="agent"/>
<rect x="654" y="186" width="5" height="60" rx="2" fill="#d64545"/>
<text x="776.0" y="211.0" class="ag" text-anchor="middle" >Low confidence</text>
<text x="776.0" y="235.0" class="ag" text-anchor="middle" >below the bar</text>
<rect x="908" y="176" width="238" height="80" rx="8" class="agent"/>
<rect x="908" y="186" width="5" height="60" rx="2" fill="#d64545"/>
<text x="1030.0" y="211.0" class="ag" text-anchor="middle" >No evidence</text>
<text x="1030.0" y="235.0" class="ag" text-anchor="middle" >no source, sink</text>
<text x="900.0" y="316" class="lb" text-anchor="middle" >one optional AI call</text>
<text x="900.0" y="344" class="lb" text-anchor="middle" >merges look-alikes</text>
<rect x="624" y="460" width="552" height="400" rx="12" class="grp"/>
<circle cx="768.5" cy="487" r="14" class="num"/>
<text x="768.5" y="493" class="numt" text-anchor="middle" >3</text>
<text x="788.5" y="496" class="gt" text-anchor="start" >Prove it wrong: S6</text>
<rect x="654" y="524" width="492" height="72" rx="8" class="agent"/>
<rect x="654" y="534" width="5" height="52" rx="2" fill="#e8973a"/>
<text x="903.0" y="555.0" class="ag" text-anchor="middle" >Fresh verifier per finding</text>
<text x="903.0" y="579.0" class="ag" text-anchor="middle" >re-reads code, hunts for defences</text>
<rect x="654" y="656" width="238" height="80" rx="8" class="agent"/>
<rect x="654" y="666" width="5" height="60" rx="2" fill="#2f9e6e"/>
<text x="776.0" y="691.0" class="ag" text-anchor="middle" >True positive</text>
<text x="776.0" y="715.0" class="ag" text-anchor="middle" >gets a CVSS score</text>
<rect x="908" y="656" width="238" height="80" rx="8" class="agent"/>
<rect x="908" y="666" width="5" height="60" rx="2" fill="#5b6675"/>
<text x="1030.0" y="691.0" class="ag" text-anchor="middle" >False positive</text>
<text x="1030.0" y="715.0" class="ag" text-anchor="middle" >kept for audit</text>
<g transform="translate(872 670)"><rect x="-9" y="-9" width="18" height="18" rx="4" fill="#2f9e6e"/><path d="M-5 0l3.5 4 6.5-8" stroke="#fff" stroke-width="2.4" fill="none"/></g>
<g transform="translate(1126 670)"><rect x="-9" y="-9" width="18" height="18" rx="4" fill="#d64545"/><path d="M-4.5-4.5l9 9M4.5-4.5l-9 9" stroke="#fff" stroke-width="2.4"/></g>
<path d="M773 596V654" class="flow"/>
<path d="M1027 596V654" class="flow"/>
<text x="900.0" y="790" class="lb" text-anchor="middle" >true positives go on to the report</text>
<rect x="24" y="460" width="552" height="400" rx="12" class="grp"/>
<circle cx="121.25" cy="487" r="14" class="num"/>
<text x="121.25" y="493" class="numt" text-anchor="middle" >4</text>
<text x="141.25" y="496" class="gt" text-anchor="start" >Live check (beta, opt-in)</text>
<rect x="54" y="524" width="492" height="80" rx="8" class="agent"/>
<rect x="54" y="534" width="5" height="60" rx="2" fill="#e8973a"/>
<text x="303.0" y="559.0" class="ag" text-anchor="middle" >Exploit verification</text>
<text x="303.0" y="583.0" class="ag" text-anchor="middle" >tests a running copy of the app</text>
<rect x="54" y="628" width="492" height="80" rx="8" class="agent"/>
<rect x="54" y="638" width="5" height="60" rx="2" fill="#5b6675"/>
<text x="303.0" y="663.0" class="ag" text-anchor="middle" >Only adds evidence</text>
<text x="303.0" y="687.0" class="ag" text-anchor="middle" >never drops a finding</text>
<path d="M300.0 604V626" class="flow"/>
<text x="300.0" y="760" class="lb" text-anchor="middle" >off unless an API collection is set</text>
<text x="300.0" y="788" class="lb" text-anchor="middle" >details in the next diagram</text>
<path d="M576 222H622" class="flow"/>
<text x="600" y="210" class="al" text-anchor="middle" >findings</text>
<path d="M900.0 428V458" class="flow"/>
<text x="955.4" y="449" class="al" text-anchor="middle" >survivors</text>
<path d="M624 660H578" class="flow"/>
<text x="600" y="648" class="al" text-anchor="middle" >API</text>
</svg>
