<svg xmlns="http://www.w3.org/2000/svg" viewBox="0 0 1200 900" width="1200" height="900" role="img" aria-labelledby="t d">
<title id="t">Safety rails</title>
<desc id="d">1 Admin side: OOMOL_CONNECT_ADMIN_TOKEN guards the admin API, the docs and the Web Console; set it whenever the Console is reachable beyond your machine; the server binds to 127.0.0.1 unless HOST is set to 0.0.0.0; runtime tokens are made there and shown once. 2 Caller tokens: a persistent token carries its own grants for actions, proxies, connections and triggers; an empty proxy grant means no /v1/proxy calls, and an empty trigger grant means no triggers. 3 Layers: deployment allow and block lists from environment variables, the runtime policy saved in the Console, and the token's grants; every layer must allow, a block always wins, and a token can only narrow. 4 Data and egress: provider requests go through a guarded fetch that blocks private and cloud metadata addresses; private networks for self-hosted providers need the OOMOL_CONNECT_ALLOW_PRIVATE_NETWORK flag; stored secrets use AES-256-GCM only when OOMOL_CONNECT_ENCRYPTION_KEY is set.</desc>
<defs>
<marker id="arr" viewBox="0 0 10 10" refX="9" refY="5" markerWidth="7" markerHeight="7" orient="auto"><path d="M0 0L10 5L0 10z" fill="#5b6675"/></marker>
<marker id="ca" viewBox="0 0 10 10" refX="5" refY="5" markerWidth="6" markerHeight="6" orient="auto"><path d="M0 0L10 5L0 10z" fill="#5b6675"/></marker>
</defs>
<style>
text{font-family:-apple-system,"Helvetica Neue",Arial,"PingFang SC",sans-serif;fill:#1f2a37}
.gt{font-size:26px;font-weight:700}
.st{font-size:20px;font-weight:700}
.ag{font-size:20px}
.q{font-size:18px;fill:#3d4a5c}
.lb{font-size:17px;fill:#4a5565}
.al{font-size:16px;font-weight:600;fill:#3d4a5c;paint-order:stroke;stroke:#ffffff;stroke-width:6px;stroke-linejoin:round}
.grp{fill:#f2f5f9;stroke:#9aa4b2;stroke-width:1.6}
.sub{fill:#e8edf3;stroke:#b8c1cc;stroke-width:1.2}
.agent{fill:#ffffff;stroke:#b8c1cc;stroke-width:1.2}
.human{fill:#d6e6fb;stroke:#9cbbe6;stroke-width:1.2}
.front{fill:#dcf0e0;stroke:#9ccfa8;stroke-width:1.2}
.flow{stroke:#5b6675;stroke-width:2;fill:none;marker-end:url(#arr)}
.back{stroke-dasharray:7 5}
.cyc{stroke:#5b6675;stroke-width:2;fill:none;marker-end:url(#ca)}
.num{fill:#1f2a37}
.numt{font-size:16px;font-weight:700;fill:#ffffff}
</style>
<rect width="1200" height="900" rx="18" fill="#ffffff"/>
<rect x="24" y="16" width="552" height="448" rx="12" class="grp"/>
<circle cx="222.5" cy="43" r="14" class="num"/>
<text x="222.5" y="49" class="numt" text-anchor="middle" >1</text>
<text x="242.5" y="52" class="gt" text-anchor="start" >Admin side</text>
<rect x="54" y="80" width="492" height="64" rx="8" class="agent"/>
<rect x="54" y="90" width="5" height="44" rx="2" fill="#d64545"/>
<text x="303.0" y="107.0" class="ag" text-anchor="middle" >Admin token</text>
<text x="303.0" y="131.0" class="ag" text-anchor="middle" >guards /api · /docs · Console</text>
<rect x="54" y="160" width="492" height="64" rx="8" class="agent"/>
<rect x="54" y="170" width="5" height="44" rx="2" fill="#d64545"/>
<text x="303.0" y="187.0" class="ag" text-anchor="middle" >Binds to 127.0.0.1</text>
<text x="303.0" y="211.0" class="ag" text-anchor="middle" >HOST=0.0.0.0 to open it</text>
<rect x="54" y="240" width="492" height="64" rx="8" class="agent"/>
<rect x="54" y="250" width="5" height="44" rx="2" fill="#8a5cc7"/>
<text x="303.0" y="267.0" class="ag" text-anchor="middle" >Runtime tokens</text>
<text x="303.0" y="291.0" class="ag" text-anchor="middle" >made here, shown once</text>
<text x="300.0" y="412" class="lb" text-anchor="middle" >Set it whenever the Console</text>
<text x="300.0" y="438" class="lb" text-anchor="middle" >is reachable beyond your machine</text>
<rect x="624" y="16" width="552" height="448" rx="12" class="grp"/>
<circle cx="802.25" cy="43" r="14" class="num"/>
<text x="802.25" y="49" class="numt" text-anchor="middle" >2</text>
<text x="822.25" y="52" class="gt" text-anchor="start" >Caller tokens</text>
<rect x="654" y="80" width="492" height="60" rx="8" class="agent"/>
<rect x="654" y="90" width="5" height="40" rx="2" fill="#d64545"/>
<text x="903.0" y="105.0" class="ag" text-anchor="middle" >Action rules</text>
<text x="903.0" y="129.0" class="ag" text-anchor="middle" >allow / block per token</text>
<rect x="654" y="154" width="492" height="60" rx="8" class="agent"/>
<rect x="654" y="164" width="5" height="40" rx="2" fill="#d64545"/>
<text x="903.0" y="179.0" class="ag" text-anchor="middle" >Proxy grant</text>
<text x="903.0" y="203.0" class="ag" text-anchor="middle" >empty = no /v1/proxy</text>
<rect x="654" y="228" width="492" height="60" rx="8" class="agent"/>
<rect x="654" y="238" width="5" height="40" rx="2" fill="#d64545"/>
<text x="903.0" y="253.0" class="ag" text-anchor="middle" >Connection grant</text>
<text x="903.0" y="277.0" class="ag" text-anchor="middle" >exact connection IDs</text>
<rect x="654" y="302" width="492" height="60" rx="8" class="agent"/>
<rect x="654" y="312" width="5" height="40" rx="2" fill="#d64545"/>
<text x="903.0" y="327.0" class="ag" text-anchor="middle" >Trigger grant</text>
<text x="903.0" y="351.0" class="ag" text-anchor="middle" >empty = no triggers</text>
<rect x="624" y="500" width="552" height="364" rx="12" class="grp"/>
<circle cx="849.5" cy="527" r="14" class="num"/>
<text x="849.5" y="533" class="numt" text-anchor="middle" >3</text>
<text x="869.5" y="536" class="gt" text-anchor="start" >Layers</text>
<rect x="654" y="564" width="492" height="64" rx="8" class="agent"/>
<rect x="654" y="574" width="5" height="44" rx="2" fill="#2f9e6e"/>
<text x="903.0" y="591.0" class="ag" text-anchor="middle" >Deployment</text>
<text x="903.0" y="615.0" class="ag" text-anchor="middle" >env allow / block lists</text>
<rect x="654" y="644" width="492" height="64" rx="8" class="agent"/>
<rect x="654" y="654" width="5" height="44" rx="2" fill="#2f9e6e"/>
<text x="903.0" y="671.0" class="ag" text-anchor="middle" >Runtime policy</text>
<text x="903.0" y="695.0" class="ag" text-anchor="middle" >saved in the Console</text>
<rect x="654" y="724" width="492" height="64" rx="8" class="agent"/>
<rect x="654" y="734" width="5" height="44" rx="2" fill="#2f9e6e"/>
<text x="903.0" y="751.0" class="ag" text-anchor="middle" >Token grants</text>
<text x="903.0" y="775.0" class="ag" text-anchor="middle" >can only narrow</text>
<text x="900.0" y="812" class="lb" text-anchor="middle" >Every layer must allow;</text>
<text x="900.0" y="838" class="lb" text-anchor="middle" >a block always wins</text>
<rect x="24" y="500" width="552" height="364" rx="12" class="grp"/>
<circle cx="188.75" cy="527" r="14" class="num"/>
<text x="188.75" y="533" class="numt" text-anchor="middle" >4</text>
<text x="208.75" y="536" class="gt" text-anchor="start" >Data and egress</text>
<rect x="54" y="564" width="492" height="64" rx="8" class="agent"/>
<rect x="54" y="574" width="5" height="44" rx="2" fill="#d64545"/>
<text x="303.0" y="591.0" class="ag" text-anchor="middle" >Guarded fetch</text>
<text x="303.0" y="615.0" class="ag" text-anchor="middle" >blocks private · metadata IPs</text>
<rect x="54" y="644" width="492" height="64" rx="8" class="agent"/>
<rect x="54" y="654" width="5" height="44" rx="2" fill="#d64545"/>
<text x="303.0" y="671.0" class="ag" text-anchor="middle" >Private network</text>
<text x="303.0" y="695.0" class="ag" text-anchor="middle" >flag, self-hosted only</text>
<rect x="54" y="724" width="492" height="64" rx="8" class="agent"/>
<rect x="54" y="734" width="5" height="44" rx="2" fill="#8a5cc7"/>
<text x="303.0" y="751.0" class="ag" text-anchor="middle" >Secrets at rest</text>
<text x="303.0" y="775.0" class="ag" text-anchor="middle" >AES-256-GCM, with a key</text>
<path d="M576 284H622" class="flow"/>
<text x="600" y="272" class="al" text-anchor="middle" >issues</text>
<path d="M1054 464V498" class="flow"/>
<text x="1054" y="488" class="al" text-anchor="middle" >checked by</text>
<path d="M624 676H578" class="flow"/>
<text x="600" y="664" class="al" text-anchor="middle" >then</text>
</svg>
